<svg width="30" height="30" viewBox="0 0 30 30" fill="none" xmlns="http://www.w3.org/2000/svg">
<path d="M10.4872 13.9959L19.3695 8.86769M10.4872 17.0041L19.3695 22.1323M24.2051 8.0641C24.2051 9.48022 23.0571 10.6282 21.641 10.6282C20.2249 10.6282 19.0769 9.48022 19.0769 8.0641C19.0769 6.64799 20.2249 5.5 21.641 5.5C23.0571 5.5 24.2051 6.64799 24.2051 8.0641ZM11.1282 15.5C11.1282 16.9161 9.98022 18.0641 8.5641 18.0641C7.14799 18.0641 6 16.9161 6 15.5C6 14.0839 7.14799 12.9359 8.5641 12.9359C9.98022 12.9359 11.1282 14.0839 11.1282 15.5ZM24.2051 22.9359C24.2051 24.352 23.0571 25.5 21.641 25.5C20.2249 25.5 19.0769 24.352 19.0769 22.9359C19.0769 21.5198 20.2249 20.3718 21.641 20.3718C23.0571 20.3718 24.2051 21.5198 24.2051 22.9359Z" stroke="black" stroke-width="0.910256"/>
</svg>
